<svg width="78" height="30" viewBox="0 0 78 30" fill="none" xmlns="http://www.w3.org/2000/svg">
<path d="M1.49548 3.05255H3.56815C3.97018 3.05255 4.32326 3.31967 4.4326 3.70655L5.70159 8.19656C5.92208 8.97671 6.98162 9.08869 7.36032 8.37187L9.25028 4.79448C9.27909 4.73996 9.3022 4.68261 9.31926 4.62336L9.9623 2.38951C10.1635 1.69056 11.0685 1.50799 11.525 2.07427L14.2383 5.44069C14.6814 5.99041 15.5563 5.83762 15.7868 5.17026L16.9586 1.7779C17.1453 1.23768 17.7822 1.00679 18.2717 1.30196L19.7281 2.18035C19.9477 2.3128 20.1003 2.53282 20.1473 2.78496L23.5428 20.9992C23.6732 21.6988 24.6294 21.8092 24.9159 21.1577V21.1577C25.1692 20.5815 25.9867 20.5815 26.24 21.1577L26.9474 22.7669C27.0908 23.0931 27.4135 23.3037 27.7698 23.3037H30.213C30.5961 23.3037 30.937 23.5466 31.0621 23.9087L32.5834 28.3126C32.878 29.1655 34.1054 29.1003 34.3079 28.2209L34.9004 25.6478C35.087 24.8377 36.179 24.6938 36.5691 25.4278L36.6156 25.5154C37.0044 26.247 38.0921 26.107 38.283 25.3009L40.3506 16.5722C40.4329 16.2246 40.7133 15.9589 41.0647 15.8953L41.9286 15.739C42.1784 15.6938 42.3974 15.545 42.5315 15.3294L43.5238 13.7335C43.8975 13.1324 44.7872 13.1795 45.0954 13.8167L45.9357 15.5543C45.9721 15.6297 45.9979 15.7099 46.0121 15.7925L46.8539 20.6662C46.9756 21.3707 47.8314 21.6577 48.3532 21.169L50.1943 19.4446C50.6216 19.0444 51.3114 19.1533 51.5946 19.6657L51.9902 20.3815C52.3505 21.0334 53.3019 20.9889 53.5998 20.3062L55.5981 15.7265C55.6151 15.6875 55.6293 15.6474 55.6406 15.6065L57.1154 10.2699C57.3531 9.4096 58.564 9.38491 58.8366 10.2348L60.5647 15.6223C60.7344 16.1514 61.3562 16.3802 61.8284 16.0873V16.0873C62.2092 15.851 62.7079 15.9493 62.9707 16.3123L66.6179 21.3516C67.0277 21.9178 67.8988 21.8196 68.1723 21.1764L68.8866 19.4961C69.1296 18.9247 69.8652 18.7662 70.3219 19.1869L70.6446 19.4841C71.178 19.9754 72.0438 19.6647 72.143 18.9463L72.6466 15.3016C72.782 14.3221 74.1696 14.2481 74.4082 15.2077L76.5046 23.6356" stroke="#CB0101" stroke-width="1.5" stroke-linecap="round"/>
</svg>
