<svg width="78" height="30" viewBox="0 0 78 30" fill="none" xmlns="http://www.w3.org/2000/svg">
<path d="M1.49548 26.9474H3.56815C3.97018 26.9474 4.32326 26.6803 4.4326 26.2935L5.70159 21.8034C5.92208 21.0233 6.98162 20.9113 7.36032 21.6281L9.25028 25.2055C9.27909 25.26 9.3022 25.3174 9.31926 25.3766L9.9623 27.6105C10.1635 28.3094 11.0685 28.492 11.525 27.9257L14.2383 24.5593C14.6814 24.0096 15.5563 24.1624 15.7868 24.8297L16.9586 28.2221C17.1453 28.7623 17.7822 28.9932 18.2717 28.698L19.7281 27.8197C19.9477 27.6872 20.1003 27.4672 20.1473 27.215L23.5428 9.00079C23.6732 8.30121 24.6294 8.1908 24.9159 8.84226V8.84226C25.1692 9.41847 25.9867 9.41847 26.24 8.84226L26.9474 7.23312C27.0908 6.90694 27.4135 6.69634 27.7698 6.69634H30.213C30.5961 6.69634 30.937 6.45342 31.0621 6.09133L32.5834 1.68737C32.878 0.834456 34.1054 0.899724 34.3079 1.77907L34.9004 4.35224C35.087 5.16229 36.179 5.30624 36.5691 4.57221L36.6156 4.48462C37.0044 3.75303 38.0921 3.89295 38.283 4.69913L40.3506 13.4278C40.4329 13.7754 40.7133 14.0411 41.0647 14.1047L41.9286 14.261C42.1784 14.3062 42.3974 14.455 42.5315 14.6706L43.5238 16.2665C43.8975 16.8676 44.7872 16.8205 45.0954 16.1833L45.9356 14.4457C45.9721 14.3703 45.9979 14.2901 46.0121 14.2075L46.8539 9.33375C46.9756 8.62929 47.8314 8.3423 48.3532 8.83099L50.1943 10.5554C50.6216 10.9556 51.3114 10.8467 51.5946 10.3343L51.9902 9.6185C52.3505 8.96664 53.3019 9.01115 53.5998 9.69378L55.5981 14.2735C55.6151 14.3125 55.6293 14.3526 55.6406 14.3935L57.1154 19.7301C57.3531 20.5904 58.564 20.6151 58.8366 19.7652L60.5647 14.3777C60.7344 13.8486 61.3562 13.6198 61.8284 13.9127V13.9127C62.2092 14.149 62.7079 14.0507 62.9707 13.6877L66.6179 8.64842C67.0277 8.08216 67.8988 8.18036 68.1723 8.82364L68.8866 10.5039C69.1296 11.0753 69.8652 11.2338 70.3219 10.8131L70.6446 10.5159C71.178 10.0246 72.0438 10.3353 72.143 11.0537L72.6466 14.6984C72.782 15.6779 74.1696 15.7519 74.4082 14.7923L76.5046 6.36436" stroke="#00C234" stroke-width="1.5" stroke-linecap="round"/>
</svg>
